HIERARCHY
ROOT root
{
	OFFSET	0	13.1	24.9
	CHANNELS 6  Xposition Yposition Zposition Xrotation Yrotation Zrotation
	JOINT spine_1
	{
		OFFSET	0	9.99999	0
		CHANNELS 3  Xrotation Yrotation Zrotation
		JOINT spine_2
		{
			OFFSET	0	112	-10
			CHANNELS 3  Xrotation Yrotation Zrotation
			JOINT spine_3
			{
				OFFSET	0	206.5	19.3
				CHANNELS 3  Xrotation Yrotation Zrotation
				JOINT spine_4
				{
					OFFSET	0	110.4	14.6
					CHANNELS 3  Xrotation Yrotation Zrotation
					JOINT neck_1
					{
						OFFSET	0	71.8	-50.3
						CHANNELS 3  Xrotation Yrotation Zrotation
						JOINT neck_2
						{
							OFFSET	0	86.2	-25.8
							CHANNELS 3  Xrotation Yrotation Zrotation
							JOINT head_ee
							{
								OFFSET	0	179.8	-8.7
								CHANNELS 3  Xrotation Yrotation Zrotation
								End Site
								{
									OFFSET	1	0	0
								}
							}
						}
					}
					JOINT left_clavicle
					{
						OFFSET	-43.2	22.4	-70.8
						CHANNELS 3  Xrotation Yrotation Zrotation
						JOINT left_shoulder
						{
							OFFSET	-93.9	-5.79999	48.7
							CHANNELS 3  Xrotation Yrotation Zrotation
							JOINT left_elbow
							{
								OFFSET	-291.4	-30.8	15.2
								CHANNELS 3  Xrotation Yrotation Zrotation
								JOINT left_lowarm_twist
								{
									OFFSET	-110.7	-3.89999	13.6
									CHANNELS 3  Xrotation Yrotation Zrotation
									JOINT left_hand
									{
										OFFSET	-110.7	-3.89999	13.6
										CHANNELS 3  Xrotation Yrotation Zrotation
										JOINT left_ee
										{
											OFFSET	-80.8	-5.10001	12.1
											CHANNELS 3  Xrotation Yrotation Zrotation
											End Site
											{
												OFFSET	1	0	0
											}
										}
									}
								}
							}
						}
					}
					JOINT right_clavicle
					{
						OFFSET	43.2	22.4	-70.8
						CHANNELS 3  Xrotation Yrotation Zrotation
						JOINT right_shoulder
						{
							OFFSET	93.9	-5.79999	48.7
							CHANNELS 3  Xrotation Yrotation Zrotation
							JOINT right_elbow
							{
								OFFSET	291.4	-30.8	15.2
								CHANNELS 3  Xrotation Yrotation Zrotation
								JOINT right_lowarm_twist
								{
									OFFSET	110.7	-3.89999	13.6
									CHANNELS 3  Xrotation Yrotation Zrotation
									JOINT right_hand
									{
										OFFSET	110.7	-3.89999	13.6
										CHANNELS 3  Xrotation Yrotation Zrotation
										JOINT right_ee
										{
											OFFSET	80.8	-5.10001	12.1
											CHANNELS 3  Xrotation Yrotation Zrotation
											End Site
											{
												OFFSET	1	0	0
											}
										}
									}
								}
							}
						}
					}
				}
			}
		}
	}
	JOINT left_hip
	{
		OFFSET	-82.8	-127.5	0.300001
		CHANNELS 3  Xrotation Yrotation Zrotation
		JOINT left_knee
		{
			OFFSET	-28.2	-396.7	2.2
			CHANNELS 3  Xrotation Yrotation Zrotation
			JOINT left_ankle
			{
				OFFSET	-11.7	-411.3	35.4
				CHANNELS 3  Xrotation Yrotation Zrotation
				JOINT left_toes
				{
					OFFSET	0	-60	-88.6
					CHANNELS 3  Xrotation Yrotation Zrotation
					JOINT left_foot_ee
					{
						OFFSET	-22.5	-16.5	-42.2
						CHANNELS 3  Xrotation Yrotation Zrotation
						End Site
						{
							OFFSET	1	0	0
						}
					}
				}
			}
		}
	}
	JOINT right_hip
	{
		OFFSET	82.8	-127.5	0.300001
		CHANNELS 3  Xrotation Yrotation Zrotation
		JOINT right_knee
		{
			OFFSET	28.2	-396.7	2.2
			CHANNELS 3  Xrotation Yrotation Zrotation
			JOINT right_ankle
			{
				OFFSET	11.7	-411.3	35.4
				CHANNELS 3  Xrotation Yrotation Zrotation
				JOINT right_toes
				{
					OFFSET	0	-60	-88.6
					CHANNELS 3  Xrotation Yrotation Zrotation
					JOINT right_foot_ee
					{
						OFFSET	22.5	-16.5	-42.2
						CHANNELS 3  Xrotation Yrotation Zrotation
						End Site
						{
							OFFSET	1	0	0
						}
					}
				}
			}
		}
	}
}
MOTION
Frames: 16
Frame Time: 0.02
2816.63351182 661.831 -1588.0847897 23.5568752688 69.8253997771 -17.9211879583 -1.87205 -0.373196 -1.25241 -1.87122 -0.292753 -1.27361 -1.86366 0.0239525 -1.3066 -1.866 -0.182684 -1.29399 -27.372 13.7488 9.38353 -28.3789 22.8914 16.4969 -0.0 0.0 -0.0 4.52447 13.1285 9.0402 1.50234 -31.0077 58.8514 1.35316 -33.8329 0.411565 -4.07846 -0.161433 0.495591 1.95109 24.854 21.4358 -0.0 0.0 -0.0 7.01642 10.8089 -13.3879 -16.5793 26.3856 -57.5149 0.712266 19.4347 -0.121973 35.7641 0.147467 4.49294 7.47003 1.64384 -59.8739 0.0 0.0 0.0 8.17243 8.17891 -6.52696 -38.3688 -0.366263 5.76856 39.545 4.55233 -4.81837 -30.5385 0.0 0.0 -0.0 0.0 -0.0 6.80268 26.6712 -11.1043 -59.0168 2.09476 -8.41624 42.0122 -25.9359 5.38988 4.88702 -0.0 -0.0 0.0 0.0 0.0 
2817.59946799 663.383 -1580.78957345 23.9973870261 69.7410458557 -18.5248969502 -1.80001 -0.212557 -1.37367 -1.79896 -0.124724 -1.38441 -1.79489 0.212192 -1.37373 -1.79752 -0.00740392 -1.39 -27.7491 13.9095 10.2741 -28.7318 22.9217 17.5036 -0.0 0.0 -0.0 4.50389 11.7587 8.9952 3.14907 -31.4387 57.4532 1.33676 -33.5106 0.402471 -3.88917 -0.153162 0.472848 1.95572 24.9961 21.5005 -0.0 0.0 -0.0 6.9859 10.8991 -13.3191 -16.5806 26.2452 -57.2689 0.513443 14.2705 -0.0642738 35.7077 0.145034 4.48616 7.57212 1.76024 -61.1823 0.0 0.0 0.0 7.01124 10.5471 -6.83127 -35.3134 -0.195836 5.33114 39.2257 4.61101 -4.79029 -31.6698 0.0 0.0 -0.0 0.0 -0.0 8.25554 23.4939 -10.8002 -57.3064 1.91626 -8.22205 40.7788 -24.8797 5.23812 4.4376 -0.0 -0.0 0.0 0.0 0.0 
2804.24827325 670.393 -1570.03820223 25.4140710339 70.8152667995 -19.9880818655 -1.79674 -0.130848 -1.52913 -1.79544 -0.0332923 -1.53436 -1.79335 0.337031 -1.49726 -1.79646 0.096366 -1.53169 -28.3059 13.9174 11.0758 -29.2516 22.7263 18.3905 -0.0 0.0 -0.0 4.40141 10.7496 8.80696 4.31389 -31.4189 56.2818 1.35509 -33.8706 0.412636 -3.82 -0.150158 0.464531 1.93758 24.8938 21.3626 -0.0 0.0 -0.0 6.73973 10.336 -12.8225 -17.8905 25.4039 -57.0975 0.353012 9.91932 -0.0306342 35.7862 0.148424 4.4956 7.64258 1.84825 -62.1103 0.0 0.0 0.0 5.94368 12.4402 -6.87164 -34.4674 -0.152805 5.20851 39.3035 4.67079 -4.79711 -32.4131 0.0 0.0 -0.0 0.0 -0.0 9.88097 20.5469 -11.0978 -54.7684 1.66232 -7.9244 40.0823 -23.9741 5.14335 4.1004 -0.0 -0.0 0.0 0.0 0.0 
2798.84881173 682.018 -1534.45094813 25.5896586534 74.1450372093 -21.1518462985 -1.7982 -0.115169 -1.57197 -1.79682 -0.0149191 -1.57611 -1.79517 0.364975 -1.53336 -1.79843 0.118261 -1.57174 -28.7326 13.4351 10.9431 -29.6178 21.9063 18.0876 -0.0 0.0 -0.0 5.58559 9.75448 10.8735 5.48228 -30.9082 53.2823 1.70728 -40.2191 0.625139 -3.8563 -0.151733 0.468896 1.42509 24.3292 18.0817 -0.0 0.0 -0.0 6.17388 11.5415 -11.5651 -17.6711 24.1399 -57.1138 0.216796 6.1299 -0.0116082 36.4666 0.178351 4.57728 7.66816 0.914813 -63.2818 0.0 0.0 0.0 4.72506 16.436 -5.25338 -28.3069 0.105181 4.29881 39.221 4.16341 -4.79032 -33.3111 0.0 0.0 -0.0 0.0 -0.0 14.423 17.0259 -10.1865 -48.1074 1.06136 -7.09348 38.7922 -24.6715 5.04009 3.4621 -0.0 -0.0 0.0 0.0 0.0 
2776.02680917 685.978 -1506.62904667 37.7384169543 77.3955698088 -33.6149094004 -2.61934 -0.347433 -1.88324 -2.61739 -0.226916 -1.90152 -2.60735 0.264417 -1.89667 -2.61237 -0.0383886 -1.91463 -28.7992 13.3326 11.2471 -29.6334 21.6157 18.3141 -0.0 0.0 -0.0 6.26779 9.23847 12.0953 7.51881 -31.8877 52.2057 2.07237 -45.7463 0.874338 -3.8135 -0.149876 0.463749 1.21803 23.6549 16.6335 -0.0 0.0 -0.0 5.68871 11.3819 -10.5488 -19.2589 22.7233 -56.4505 0.209567 5.927 -0.0108491 36.7931 0.193055 4.61635 7.66873 0.476538 -63.6658 0.0 0.0 0.0 0.486435 18.4537 -3.88014 -26.77 0.154169 4.06802 38.399 4.41207 -4.71689 -33.9993 0.0 0.0 -0.0 0.0 -0.0 21.7442 14.1169 -11.6507 -44.6582 0.789394 -6.63771 37.6985 -25.057 4.94306 3.15453 -0.0 -0.0 0.0 0.0 0.0 
2778.64060533 685.978 -1500.32851701 40.358458117 78.0971762452 -36.2959605222 -2.61934 -0.347433 -1.88324 -2.61739 -0.226916 -1.90152 -2.60735 0.264417 -1.89667 -2.61237 -0.0383886 -1.91463 -28.7992 13.3326 11.2471 -29.6334 21.6157 18.3141 -0.0 0.0 -0.0 6.26779 9.23847 12.0953 7.51881 -31.8877 52.2057 2.07237 -45.7463 0.874338 -3.8135 -0.149876 0.463749 1.21803 23.6549 16.6335 -0.0 0.0 -0.0 5.68871 11.3819 -10.5488 -19.2589 22.7233 -56.4505 0.209567 5.927 -0.0108491 36.7931 0.193055 4.61635 7.66873 0.476538 -63.6658 0.0 0.0 0.0 0.486435 18.4537 -3.88014 -26.77 0.154169 4.06802 38.399 4.41207 -4.71689 -33.9993 0.0 0.0 -0.0 0.0 -0.0 21.7442 14.1169 -11.6507 -44.6582 0.789394 -6.63771 37.6985 -25.057 4.94306 3.15453 -0.0 -0.0 0.0 0.0 0.0 
2757.9517789 687.583 -1484.13438631 53.9082896253 79.2046753517 -49.8796720003 -2.82199 -0.428671 -2.16868 -2.81942 -0.289838 -2.19154 -2.8048 0.284925 -2.19219 -2.8115 -0.0647781 -2.20967 -29.1473 13.0272 9.61628 -30.1108 21.6255 16.7465 -0.0 0.0 -0.0 6.56179 9.40845 12.6175 10.0659 -32.0057 53.7176 2.5451 -51.5713 1.22972 -5.01941 -0.203667 0.608237 0.826657 20.4452 13.2331 -0.0 0.0 -0.0 5.27765 10.9626 -9.70879 -22.0133 20.6177 -55.7597 0.341301 9.59647 -0.0286494 36.8969 0.197777 4.62875 7.66084 -0.166298 -64.0925 0.0 0.0 0.0 -4.67224 19.2495 -1.82876 -21.572 0.273647 3.27956 36.904 3.81568 -4.58119 -36.1362 0.0 0.0 -0.0 0.0 -0.0 27.4311 13.1772 -10.4922 -42.7024 0.647583 -6.37239 37.6973 -25.0244 4.94194 2.2564 -0.0 -0.0 0.0 0.0 0.0 
2724.30242072 685.224 -1481.73178062 46.7579616837 79.1859995355 -42.1685683939 -2.65861 -0.287236 -2.40536 -2.6554 -0.13364 -2.41875 -2.64594 0.488007 -2.3728 -2.65378 0.107258 -2.42006 -27.7815 13.2689 6.34717 -28.9977 23.1164 13.5797 -0.0 0.0 -0.0 6.92897 11.2995 13.1979 12.3466 -33.1716 55.5408 2.9077 -55.2186 1.52095 -6.42282 -0.270086 0.774938 0.489068 15.3356 9.32654 -0.0 0.0 -0.0 5.1176 10.967 -9.37251 -24.3469 19.237 -55.6158 0.281821 7.94763 -0.0195775 36.0544 0.160105 4.52784 7.6932 -0.240623 -64.6653 0.0 0.0 0.0 -7.93213 19.4573 -0.563844 -16.8323 0.319902 2.55399 37.497 2.4908 -4.63988 -38.7974 0.0 0.0 -0.0 0.0 -0.0 28.4206 12.9403 -8.7797 -34.0667 0.133056 -5.1502 37.9199 -25.1682 4.96881 0.875568 -0.0 -0.0 0.0 0.0 0.0 
2705.92912647 683.533 -1480.24253467 44.8517574774 79.0327755818 -39.9146716921 -2.74479 -0.250842 -2.48558 -2.74136 -0.0922195 -2.4965 -2.73329 0.55167 -2.43657 -2.74154 0.160062 -2.49307 -27.3504 13.2231 4.69212 -28.6567 23.6159 11.9425 -0.0 0.0 -0.0 7.0113 12.1029 13.303 13.0707 -32.9451 57.1273 3.25896 -58.2116 1.81468 -7.0431 -0.300743 0.848096 0.278319 12.2788 6.82854 -0.0 0.0 -0.0 4.80909 10.8374 -8.73413 -24.8807 18.6069 -55.8105 0.292472 8.24395 -0.0210774 35.6743 0.143592 4.48213 7.71751 -0.285755 -65.0942 0.0 0.0 0.0 -9.79006 18.916 -0.00424334 -15.6543 0.322075 2.37328 38.4929 1.75751 -4.73317 -39.5255 0.0 0.0 -0.0 0.0 -0.0 28.8803 12.8553 -8.39132 -28.6493 -0.0934253 -4.35004 38.0116 -25.4616 4.98728 0.293301 -0.0 -0.0 0.0 0.0 0.0 
2691.93247898 678.52 -1488.25524978 44.2364917069 79.3071433962 -39.3649790041 -2.80327 -0.414716 -2.52638 -2.79975 -0.253168 -2.54763 -2.7839 0.411337 -2.52693 -2.79281 0.00722901 -2.56016 -28.5091 12.3264 2.90752 -29.8124 22.5712 10.03 -0.0 0.0 -0.0 6.62382 12.1021 12.6306 13.8445 -32.706 58.5385 3.63011 -60.9061 2.13476 -7.29119 -0.313226 0.877264 0.120195 11.5151 5.52026 -0.0 0.0 -0.0 4.5735 11.2167 -8.21503 -24.7666 18.456 -56.2842 0.323554 9.10608 -0.0257658 35.8739 0.152227 4.50615 7.71749 -0.78636 -65.5357 0.0 0.0 0.0 -10.4195 18.8568 0.237633 -14.4571 0.320476 2.18961 38.8801 1.51733 -4.7688 -40.1824 0.0 0.0 -0.0 0.0 -0.0 29.7139 13.1286 -7.54111 -25.0976 -0.200414 -3.81554 38.0919 -25.309 4.9905 0.00541955 -0.0 -0.0 0.0 0.0 0.0 
2690.25169605 678.52 -1492.82441665 42.3165433095 78.9148504238 -37.4098463159 -2.80327 -0.414716 -2.52638 -2.79975 -0.253168 -2.54763 -2.7839 0.411337 -2.52693 -2.79281 0.00722901 -2.56016 -28.5091 12.3264 2.90752 -29.8124 22.5712 10.03 -0.0 0.0 -0.0 6.62382 12.1021 12.6306 13.8445 -32.706 58.5385 3.63011 -60.9061 2.13476 -7.29119 -0.313226 0.877264 0.120195 11.5151 5.52026 -0.0 0.0 -0.0 4.5735 11.2167 -8.21503 -24.7666 18.456 -56.2842 0.323554 9.10608 -0.0257658 35.8739 0.152227 4.50615 7.71749 -0.78636 -65.5357 0.0 0.0 0.0 -10.4195 18.8568 0.237633 -14.4571 0.320476 2.18961 38.8801 1.51733 -4.7688 -40.1824 0.0 0.0 -0.0 0.0 -0.0 29.7139 13.1286 -7.54111 -25.0976 -0.200414 -3.81554 38.0919 -25.309 4.9905 0.00541955 -0.0 -0.0 0.0 0.0 0.0 
2664.81000511 674.32 -1491.12256963 39.9839003266 79.6300250802 -35.3438506129 -2.78818 -0.400087 -2.55325 -2.78458 -0.236862 -2.57351 -2.76931 0.433131 -2.54785 -2.77837 0.0254488 -2.58426 -28.6653 11.6326 -1.30866 -30.0279 22.737 5.73511 -0.0 0.0 -0.0 6.79606 12.207 12.9243 14.9588 -31.4756 60.9612 4.0533 -63.5066 2.50923 -9.51831 -0.430927 1.13665 -0.235089 9.73062 2.52283 -0.0 0.0 -0.0 3.96503 12.3107 -6.85788 -23.9447 19.1275 -57.9665 0.334845 9.41825 -0.0275831 34.0856 0.0778894 4.28997 7.66156 -2.41554 -66.0106 0.0 0.0 0.0 -10.1004 18.6557 0.934689 -17.8015 0.315329 2.70263 39.9074 -0.972437 -4.87581 -40.1796 0.0 0.0 -0.0 0.0 -0.0 28.0145 13.2644 -5.86542 -8.08811 -0.247549 -1.21557 34.2432 -25.4803 4.59459 -0.421791 0.0 0.0 0.0 0.0 0.0 
2632.10991804 662.858 -1494.49493896 37.5495877438 79.8152993355 -33.6552048264 -2.58174 -0.302155 -2.32073 -2.57876 -0.15391 -2.33524 -2.56894 0.443973 -2.29783 -2.5763 0.0756065 -2.33908 -28.3657 12.4104 -2.19929 -29.9439 24.5595 5.36972 -0.0 0.0 -0.0 5.62172 12.4014 10.8992 14.8755 -30.786 63.5219 4.86913 -67.4577 3.25194 -12.2688 -0.590098 1.45045 -0.469563 10.0378 1.14801 -0.0 0.0 -0.0 2.95324 12.0617 -4.75613 -22.0991 21.6429 -60.5462 0.436011 12.1881 -0.0465507 31.1255 -0.0301979 3.92746 7.57474 -6.02433 -67.4047 0.0 0.0 0.0 -9.09031 18.3913 -0.0639454 -24.1869 0.222488 3.67753 40.2608 -3.74934 -4.93637 -39.3668 0.0 0.0 -0.0 0.0 -0.0 26.4747 13.7486 -4.72513 1.25415 0.0536723 0.184965 33.1273 -24.7218 4.45226 -0.332418 0.0 0.0 0.0 0.0 0.0 
2628.97511366 662.858 -1504.58689336 34.2386117593 78.9577905912 -30.2867263259 -2.58174 -0.302155 -2.32073 -2.57876 -0.15391 -2.33524 -2.56894 0.443973 -2.29783 -2.5763 0.0756065 -2.33908 -28.3657 12.4104 -2.19929 -29.9439 24.5595 5.36972 -0.0 0.0 -0.0 5.62172 12.4014 10.8992 14.8755 -30.786 63.5219 4.86913 -67.4577 3.25194 -12.2688 -0.590098 1.45045 -0.469563 10.0378 1.14801 -0.0 0.0 -0.0 2.95324 12.0617 -4.75613 -22.0991 21.6429 -60.5462 0.436011 12.1881 -0.0465507 31.1255 -0.0301979 3.92746 7.57474 -6.02433 -67.4047 0.0 0.0 0.0 -9.09031 18.3913 -0.0639454 -24.1869 0.222488 3.67753 40.2608 -3.74934 -4.93637 -39.3668 0.0 0.0 -0.0 0.0 -0.0 26.4747 13.7486 -4.72513 1.25415 0.0536723 0.184965 33.1273 -24.7218 4.45226 -0.332418 0.0 0.0 0.0 0.0 0.0 
2597.11936749 657.023 -1505.48170194 36.2671963802 80.788908179 -32.9542342317 -2.55662 -0.314799 -2.23203 -2.55386 -0.172168 -2.24752 -2.5438 0.403041 -2.2178 -2.55066 0.0478157 -2.2536 -27.677 12.9667 -3.13352 -29.3937 26.0237 4.72901 -0.0 0.0 -0.0 5.04939 12.6071 9.92385 12.8471 -29.6852 65.6818 5.45547 -69.6663 3.79782 -13.692 -0.678339 1.60975 -0.601583 10.3566 0.438808 -0.0 0.0 -0.0 2.71122 12.6152 -4.1999 -20.5746 22.1637 -61.9885 0.507001 14.0986 -0.0626953 30.3801 -0.0544513 3.83534 7.47579 -8.54027 -67.4114 0.0 0.0 0.0 -9.00193 19.1899 -0.202889 -27.1826 0.141625 4.13011 40.0328 -3.48783 -4.91351 -38.7634 0.0 0.0 -0.0 0.0 -0.0 25.6579 13.7068 -3.79155 4.53399 0.213085 0.662823 34.6609 -24.7057 4.61759 0.175953 -0.0 -0.0 0.0 0.0 0.0 
2555.87909975 651.457 -1504.81701478 53.522173072 82.5408106165 -50.7965043089 -2.29314 -0.686158 -2.12589 -2.2908 -0.549524 -2.16522 -2.26662 0.00604227 -2.23383 -2.27342 -0.346738 -2.20677 -27.8436 13.3557 -2.92112 -29.6763 26.6693 5.22792 -0.0 0.0 -0.0 4.00222 12.2216 8.15054 8.8066 -29.4636 66.1842 4.88829 -67.5371 3.26964 -11.6051 -0.55031 1.37542 -0.377636 6.98486 0.452685 -0.0 0.0 -0.0 2.60748 11.0705 -4.1211 -20.3494 25.568 -63.2492 0.536613 14.8864 -0.0701058 28.7431 -0.103489 3.63199 7.4064 -10.4176 -67.3304 0.0 0.0 0.0 -13.3901 17.9756 -0.289178 -26.0687 0.174459 3.96231 40.0163 -3.60041 -4.91353 -38.5592 0.0 0.0 -0.0 0.0 -0.0 25.2328 14.0287 -2.7149 -1.65629 -0.0646451 -0.245953 42.4965 -23.0235 5.33668 3.4128 -0.0 -0.0 0.0 0.0 0.0 
